#!OML:ASF E:\VariousWalksJay\Project 1\Capture day 1\Session 1\Actor2.ASF
:FULLY-SPECIFIED
:DEGREES
659
root 6.69958 15 9.15375 18.1815 -47.3011 -7.0181
lowerback 31.2994 -4.08717 5.78191
upperback 16.7685 -4.70476 -3.61748
thorax 1.42628 -2.15975 -5.58014
lowerneck 1.05677 3.40128 4.37863
upperneck -10.1807 4.66178 -1.03075
head -3.33424 2.17732 -1.2395
rclavicle -2.8625e-014 2.38542e-015
rhumerus -32.2328 28.9244 -89.2472
rradius 99.9261
rwrist 13.5323
rhand -38.7746 1.03019
rfingers 7.12502
rthumb -11.7863 -28.6182
lclavicle -2.8625e-014 2.38542e-015
lhumerus 42.1321 -27.2676 45.6628
lradius 85.9392
lwrist 53.0472
lhand -39.7765 11.5482
lfingers 7.12502
lthumb -12.7523 41.1387
rfemur -40.4922 6.31161 30.622
rtibia 76.068
rfoot -38.89 -21.5304
rtoes -22.3281
lfemur -57.3468 5.69073 -14.566
ltibia 18.6313
lfoot -5.23759 9.304
ltoes -16.8639
660
root 6.62042 15.0763 9.28685 18.5623 -47.235 -6.97317
lowerback 30.7264 -4.12554 5.75488
upperback 16.5863 -4.76325 -3.57451
thorax 1.43974 -2.18852 -5.52735
lowerneck 0.92253 3.47939 4.40156
upperneck -9.85741 4.75775 -1.04734
head -3.19334 2.23156 -1.24076
rclavicle 3.02153e-014 -5.56597e-015
rhumerus -33.2821 28.307 -89.6751
rradius 99.1059
rwrist 13.975
rhand -39.0947 1.79452
rfingers 7.12502
rthumb -12.0949 -27.8359
lclavicle 3.02153e-014 -5.56597e-015
lhumerus 40.9215 -28.3724 46.4936
lradius 86.2576
lwrist 52.4959
lhand -39.913 11.0976
lfingers 7.12502
lthumb -12.8839 40.68
rfemur -39.9252 6.3839 30.2607
rtibia 75.2208
rfoot -38.5049 -21.2002
rtoes -23.192
lfemur -56.9884 5.62669 -14.7744
ltibia 18.078
lfoot -4.32881 8.8271
ltoes -17.1133
661
root 6.54133 15.152 9.42 18.9355 -47.1511 -6.91789
lowerback 29.8933 -4.14174 5.70142
upperback 16.4598 -4.8529 -3.356
thorax 1.65959 -2.22463 -5.63951
lowerneck 0.757166 3.55736 4.43539
upperneck -9.50069 4.85229 -1.05804
head -3.03603 2.285 -1.24001
rclavicle -6.83819e-014 1.29608e-013
rhumerus -34.3356 27.6993 -90.0713
rradius 98.2846
rwrist 14.3911
rhand -39.4385 2.54638
rfingers 7.12502
rthumb -12.4265 -27.0642
lclavicle -6.83819e-014 1.29608e-013
lhumerus 39.7218 -29.4802 47.3033
lradius 86.5473
lwrist 51.9545
lhand -40.0647 10.6519
lfingers 7.12502
lthumb -13.0301 40.225
rfemur -39.3707 6.47551 29.8842
rtibia 74.3776
rfoot -38.0841 -20.8386
rtoes -24.0501
lfemur -56.7204 5.59071 -15.0167
ltibia 17.6105
lfoot -3.48228 8.2413
ltoes -17.2739
662
root 6.46217 15.2264 9.55349 19.2987 -47.0603 -6.86738
lowerback 29.4139 -4.18533 5.65038
upperback 16.2647 -4.91679 -3.31364
thorax 1.63282 -2.25936 -5.55501
lowerneck 0.5783 3.63288 4.48143
upperneck -9.12759 4.94309 -1.06392
head -2.87174 2.3362 -1.23864
rclavicle 3.18055e-014 -7.15625e-014
rhumerus -35.3875 27.106 -90.4404
rradius 97.4627
rwrist 14.7634
rhand -39.8207 3.30171
rfingers 7.12502
rthumb -12.7949 -26.2862
lclavicle 3.18055e-014 -7.15625e-014
lhumerus 38.5513 -30.5861 48.0761
lradius 86.8002
lwrist 51.4238
lhand -40.2335 10.2127
lfingers 7.12502
lthumb -13.1928 39.7752
rfemur -38.8118 6.59285 29.5023
rtibia 73.5377
rfoot -37.6332 -20.45
rtoes -24.8947
lfemur -56.5207 5.57278 -15.2663
ltibia 17.2696
lfoot -2.71982 7.61102
ltoes -17.3114
663
root 6.38276 15.299 9.68734 19.6433 -46.9454 -6.82147
lowerback 28.9779 -4.23935 5.60199
upperback 16.0729 -4.99127 -3.26734
thorax 1.5924 -2.29977 -5.46371
lowerneck 0.403928 3.70642 4.52755
upperneck -8.7564 5.0316 -1.06303
head -2.71037 2.38596 -1.2349
rclavicle 6.04305e-014 -3.18055e-015
rhumerus -36.4335 26.5454 -90.7815
rradius 96.6412
rwrist 15.0857
rhand -40.2434 4.07356
rfingers 7.12502
rthumb -13.2024 -25.4884
lclavicle 6.04305e-014 -3.18055e-015
lhumerus 37.4122 -31.6779 48.8155
lradius 87.0112
lwrist 50.9013
lhand -40.4068 9.77787
lfingers 7.12502
lthumb -13.3599 39.3296
rfemur -38.2374 6.71551 29.1278
rtibia 72.7008
rfoot -37.1658 -20.047
rtoes -25.7075
lfemur -56.3763 5.55611 -15.5171
ltibia 17.084
lfoot -2.06275 6.96224
ltoes -17.1186
664
root 6.30316 15.3693 9.82194 19.9699 -46.8162 -6.79081
lowerback 28.5831 -4.29648 5.57695
upperback 15.8918 -5.06397 -3.22541
thorax 1.54767 -2.33774 -5.39072
lowerneck 0.242029 3.76836 4.59462
upperneck -8.40676 5.10575 -1.05644
head -2.55978 2.42724 -1.23321
rclavicle 6.99722e-014 3.97569e-015
rhumerus -37.4625 25.9893 -91.1042
rradius 95.8191
rwrist 15.3776
rhand -40.7109 4.85132
rfingers 7.12502
rthumb -13.653 -24.6809
lclavicle 6.99722e-014 3.97569e-015
lhumerus 36.3351 -32.7656 49.5069
lradius 87.1838
lwrist 50.387
lhand -40.5794 9.34258
lfingers 7.12502
lthumb -13.5263 38.8833
rfemur -37.6356 6.843 28.7698
rtibia 71.8636
rfoot -36.688 -19.6389
rtoes -26.4655
lfemur -56.2639 5.52669 -15.7472
ltibia 17.0639
lfoot -1.50559 6.37907
ltoes -16.754
665
root 6.22362 15.4372 9.95698 20.2886 -46.6781 -6.7814
lowerback 28.2198 -4.35659 5.57407
upperback 15.7208 -5.1356 -3.18761
thorax 1.50159 -2.3737 -5.33509
lowerneck 0.106945 3.82092 4.67424
upperneck -8.09488 5.16898 -1.04682
head -2.42775 2.46193 -1.23393
rclavicle -1.90833e-014 -1.03368e-014
rhumerus -38.468 25.4542 -91.406
rradius 95.0023
rwrist 15.6406
rhand -41.2117 5.64694
rfingers 7.12502
rthumb -14.1356 -23.8522
lclavicle -1.90833e-014 -1.03368e-014
lhumerus 35.3079 -33.8347 50.1616
lradius 87.3236
lwrist 49.8821
lhand -40.7413 8.92412
lfingers 7.12502
lthumb -13.6823 38.4544
rfemur -37.0135 6.97337 28.4352
rtibia 71.0239
rfoot -36.2088 -19.2245
rtoes -27.1154
lfemur -56.1845 5.50485 -15.9729
ltibia 17.1923
lfoot -1.00048 5.88663
ltoes -16.3313
666
root 6.14443 15.5027 10.0924 20.599 -46.5316 -6.79223
lowerback 27.8805 -4.4187 5.59829
upperback 15.5637 -5.20464 -3.15399
thorax 1.46137 -2.40642 -5.30057
lowerneck 0.00249174 3.86229 4.75794
upperneck -7.83222 5.21916 -1.03197
head -2.31871 2.48896 -1.23532
rclavicle 1.43125e-014 6.83819e-014
rhumerus -39.4392 24.939 -91.6852
rradius 94.196
rwrist 15.8831
rhand -41.7073 6.43663
rfingers 7.12502
rthumb -14.6132 -23.0285
lclavicle 1.43125e-014 6.83819e-014
lhumerus 34.3294 -34.8792 50.7936
lradius 87.4382
lwrist 49.3828
lhand -40.8922 8.51298
lfingers 7.12502
lthumb -13.8278 38.0334
rfemur -36.3688 7.09955 28.1279
rtibia 70.1796
rfoot -35.7413 -18.798
rtoes -27.6011
lfemur -56.1285 5.48008 -16.1832
ltibia 17.4384
lfoot -0.518254 5.51185
ltoes -15.8898
667
root 6.06574 15.566 10.2284 20.8995 -46.3896 -6.83385
lowerback 27.5746 -4.47914 5.65269
upperback 15.4224 -5.26603 -3.12517
thorax 1.42499 -2.43345 -5.29042
lowerneck -0.0792658 3.89265 4.84496
upperneck -7.61516 5.25578 -1.01741
head -2.22962 2.50837 -1.23877
rclavicle 1.59028e-014 -3.4191e-014
rhumerus -40.3735 24.4463 -91.9444
rradius 93.4071
rwrist 16.1041
rhand -42.1866 7.2123
rfingers 7.12502
rthumb -15.0749 -22.2188
lclavicle 1.59028e-014 -3.4191e-014
lhumerus 33.3921 -35.8964 51.4129
lradius 87.5373
lwrist 48.8912
lhand -41.0324 8.109
lfingers 7.12502
lthumb -13.9629 37.6201
rfemur -35.6881 7.22403 27.8542
rtibia 69.3291
rfoot -35.286 -18.3722
rtoes -27.9212
lfemur -56.0739 5.45127 -16.3566
ltibia 17.7684
lfoot -0.0613166 5.23898
ltoes -15.4888
668
root 5.98775 15.6268 10.3647 21.1979 -46.2598 -6.90136
lowerback 27.289 -4.53343 5.7175
upperback 15.2947 -5.31875 -3.09487
thorax 1.39705 -2.45571 -5.28714
lowerneck -0.143283 3.91613 4.92229
upperneck -7.43791 5.2837 -1.00877
head -2.15745 2.52322 -1.24371
rclavicle 9.54166e-015 1.90833e-014
rhumerus -41.2696 23.9991 -92.1791
rradius 92.6436
rwrist 16.3102
rhand -42.6552 7.94567
rfingers 7.12502
rthumb -15.5263 -21.451
lclavicle 9.54166e-015 1.90833e-014
lhumerus 32.4745 -36.8765 52.0429
lradius 87.6289
lwrist 48.4018
lhand -41.1709 7.71478
lfingers 7.12502
lthumb -14.0963 37.2167
rfemur -34.988 7.34721 27.6119
rtibia 68.4757
rfoot -34.84 -17.9604
rtoes -28.0897
lfemur -56.0287 5.43852 -16.5128
ltibia 18.1517
lfoot 0.375976 5.01695
ltoes -15.1831
